<?xml version="1.0" standalone="no"?>
<!DOCTYPE svg PUBLIC "-//W3C//DTD SVG 20010904//EN"
 "http://www.w3.org/TR/2001/REC-SVG-20010904/DTD/svg10.dtd">
<svg version="1.0" xmlns="http://www.w3.org/2000/svg"
 width="291.000000pt" height="291.000000pt" viewBox="0 0 291.000000 291.000000"
 preserveAspectRatio="xMidYMid meet">
<metadata>
Created by potrace 1.11, written by Peter Selinger 2001-2013
</metadata>
<g transform="translate(0.000000,291.000000) scale(0.100000,-0.100000)"
fill="#000000" stroke="none">
<path d="M1208 2175 c-2 -2 -37 -7 -78 -10 -92 -8 -111 -11 -180 -24 -30 -6
-64 -13 -76 -15 -54 -11 -231 -60 -277 -78 -29 -11 -58 -20 -64 -21 -7 0 -13
-4 -13 -9 0 -4 -9 -8 -19 -8 -11 0 -23 -4 -26 -10 -3 -5 -14 -10 -24 -10 -10
0 -24 -7 -31 -15 -7 -8 -19 -15 -27 -15 -8 0 -29 -10 -46 -22 -18 -13 -44 -30
-59 -38 -68 -38 -171 -137 -219 -210 -82 -127 -91 -282 -23 -412 29 -58 44
-77 111 -142 80 -78 129 -112 238 -166 39 -19 72 -37 75 -40 3 -3 10 -6 15 -7
6 -1 42 -14 80 -29 102 -38 193 -65 272 -80 18 -3 31 -9 29 -13 -3 -4 11 -5
31 -3 25 3 34 1 29 -7 -4 -7 -2 -9 7 -5 8 3 41 1 73 -5 74 -13 182 -24 212
-22 15 0 21 -3 16 -11 -4 -6 -3 -8 3 -5 6 4 121 9 254 11 134 3 258 7 274 9
17 2 57 8 90 11 33 4 92 14 130 23 39 8 81 16 95 17 14 0 27 4 30 7 5 6 138
44 155 44 6 0 16 4 23 8 6 5 17 5 24 1 6 -4 8 -3 5 3 -4 6 5 14 20 18 28 7
105 38 136 56 10 5 43 23 74 40 58 32 126 78 131 92 2 4 8 7 14 7 6 0 19 9 29
21 10 12 23 18 30 13 8 -5 9 -3 4 5 -4 8 1 21 14 32 12 11 29 31 38 45 10 16
22 23 32 19 13 -5 13 -4 4 6 -9 9 -8 18 6 38 32 47 46 113 46 212 0 66 -4 101
-14 112 -7 9 -11 24 -7 32 3 9 2 13 -4 10 -6 -3 -10 -2 -10 4 0 38 -138 189
-223 244 -15 10 -25 23 -21 29 4 7 3 8 -4 4 -14 -9 -135 57 -125 68 4 4 0 4
-10 0 -9 -3 -23 -2 -30 4 -23 19 -240 97 -300 108 -16 2 -39 10 -50 16 -12 6
-43 12 -70 14 -26 2 -52 6 -56 9 -8 4 -89 17 -118 18 -7 0 -13 3 -13 6 0 3
-24 7 -53 9 -99 5 -575 11 -579 7z"/>
<path d="M2666 1908 c3 -5 10 -6 15 -3 13 9 11 12 -6 12 -8 0 -12 -4 -9 -9z"/>
</g>
</svg>
